 
Terry Hoitz's past mistakes in the line of duty and Allen Gamble's reluctance to take risks have landed them the roles of the "Other Guys", disgraced New York City police detectives relegated to filling out paperwork for cocky hero cops Danson and Highsmith. The mismatched duo must look past their differences when they take on a high-profile investigation of shady capitalist David Ershon and attempt to fill the shoes of the notoriously reckless officers they idolize


  
http://www.imdb.com/title/tt1386588/
Genre:Action | Comedy
User Rating:7.1/10


 
Video
Format : xvid
Codec ID : xvid
Duration : 1h 47mn
Bit rate : 1 320 Kbps
Width : 672 pixels
Height : 288 pixels
Display aspect ratio : 2.35:1
Frame rate : 23.976 fps
Bits/(Pixel*Frame) : 0.285
Stream size : 1 013 MiB (94%)

Audio
ID : 1
Format : MPEG Audio
Format version : Version 1
Format profile : Layer 3
Mode : Joint stereo
Format_Settings_ModeExtension : MS Stereo
Codec ID : 55
Codec ID/Hint : MP3
Duration : 1h 47mn
Bit rate mode : Constant
Bit rate : 64.0 Kbps
Channel(s) : 2 channels
Sampling rate : 48.0 KHz
Stream size : 49.1 MiB (5%)
Alignment : Aligned on interleaves
Interleave, duration : 24 ms (0.58 video frame)
Interleave, preload duration : 24 ms






 
http://thepiratebay.org/user/hiest









Screenshots:
 
http://postimg.com/image/21000/20545.jpg